<svg width="17" height="18" viewBox="0 0 17 18" fill="none" xmlns="http://www.w3.org/2000/svg">
<g clip-path="url(#clip0_5205_556)">
<path d="M16.7404 7.69003L16.6544 7.32603H8.74537V10.674H13.4704C13.2079 11.6988 12.6094 12.606 11.7706 13.2506C10.9318 13.8952 9.90119 14.2401 8.84337 14.23C7.46018 14.2183 6.13157 13.6888 5.11937 12.746C4.62133 12.2556 4.22489 11.6718 3.95274 11.028C3.6806 10.3842 3.53809 9.69299 3.53338 8.99403C3.55387 7.59154 4.11108 6.25022 5.09037 5.24603C6.08944 4.30221 7.41608 3.78338 8.79038 3.79903C9.95282 3.81523 11.0703 4.25058 11.9374 5.02503L14.3164 2.65803C12.7783 1.27505 10.7848 0.506846 8.71637 0.50003C7.5915 0.477943 6.47366 0.6823 5.42936 1.10095C4.38505 1.5196 3.4356 2.14398 2.63747 2.93698C1.83935 3.72997 1.20885 4.67537 0.783478 5.71696C0.358104 6.75854 0.146542 7.87503 0.161374 9.00003C0.150758 11.1923 0.983561 13.3048 2.48737 14.9C3.32612 15.7393 4.32467 16.4018 5.42396 16.8484C6.52325 17.295 7.70095 17.5166 8.88738 17.5C9.95917 17.5087 11.0215 17.299 12.0096 16.8836C12.9977 16.4683 13.8907 15.8559 14.6344 15.084C16.0945 13.4789 16.8843 11.3755 16.8414 9.20603C16.8474 8.69887 16.8139 8.19201 16.7414 7.69003H16.7404Z" fill="white"/>
</g>
<defs>
<clipPath id="clip0_5205_556">
<rect width="17" height="17" fill="white" transform="translate(0 0.5)"/>
</clipPath>
</defs>
</svg>
